<?xml version="1.0" encoding="utf-8"?>
<!-- Generator: Adobe Illustrator 23.0.1, SVG Export Plug-In . SVG Version: 6.00 Build 0)  -->
<svg version="1.1" id="Layer_1" focusable="false" xmlns="http://www.w3.org/2000/svg" xmlns:xlink="http://www.w3.org/1999/xlink"
	 x="0px" y="0px" viewBox="0 0 1000 1000" style="enable-background:new 0 0 1000 1000;" xml:space="preserve">
<style type="text/css">
	.st0{fill:#FF5A5F;}
</style>
<path class="st0" d="M499.3,736.7c-51-64-81-120.1-91-168.1c-10-39-6-70,11-93c18-27,45-40,80-40s62,13,80,40c17,23,21,54,11,93
	C579.3,617.6,549.3,673.6,499.3,736.7L499.3,736.7z M861.5,779.7c-7,47-39,86-83,105c-85,37-169.1-22-241.1-102
	c119.1-149.1,141.1-265.1,90-340.2c-30-43-73-64-128.1-64c-111,0-172.1,94-148.1,203.1c14,59,51,126.1,110,201.1
	c-37,41-72,70-103,88c-24,13-47,21-69,23c-101,15-180.1-83-144.1-184.1c5-13,15-37,32-74l1-2c55-120.1,122.1-256.1,199.1-407.2l2-5
	l22-42c17-31,24-45,51-62c13-8,29-12,47-12c36,0,64,21,76,38c6,9,13,21,22,36l21,41l3,6c77,151.1,144.1,287.1,199.1,407.2l1,1l20,46
	l12,29C862.5,732.7,864.5,755.7,861.5,779.7L861.5,779.7z M907.5,689.6c-7-22-19-48-34-79v-1c-71-151.1-137.1-287.1-200.1-409.2
	l-4-6c-45-92-77-147.1-170.1-147.1c-92,0-131.1,64-171.1,147.1l-3,6c-63,122.1-129.1,258.1-200.1,409.2v2l-21,46c-8,19-12,29-13,32
	c-51,140.1,54,263.1,181.1,263.1c1,0,5,0,10-1h14c66-8,134.1-50,203.1-125.1c69,75,137.1,117.1,203.1,125.1h14c5,1,9,1,10,1
	C853.5,952.8,958.5,829.7,907.5,689.6L907.5,689.6z"/>
</svg>
