<svg id="Layer_1" data-name="Layer 1" xmlns="http://www.w3.org/2000/svg" viewBox="0 0 26 26"><defs><style>.cls-1{fill-rule:evenodd;}</style></defs><title>Artboard 1</title><path class="cls-1" d="M23.87,10.83a1.08,1.08,0,0,1-1.08,1.09H13V7.58h9.75a1.08,1.08,0,0,1,1.08,1.09ZM21.71,13V23.82a1.08,1.08,0,0,1-1.08,1.09H13V13ZM4.38,24.91a1.09,1.09,0,0,1-1.09-1.09V13H12V24.91ZM1.13,10.83V8.67A1.08,1.08,0,0,1,2.21,7.58H12v4.34H2.21A1.08,1.08,0,0,1,1.13,10.83ZM9.47,6.38a6.12,6.12,0,0,1-2.2-.58C5.7,4.89,5.05,3.47,5.75,2.24a2.38,2.38,0,0,1,3.74-.47A6.64,6.64,0,0,1,11,4,19.09,19.09,0,0,1,12,6.5h-.5a16.48,16.48,0,0,1-2-.12Zm3.83-.57c.23-.64.49-1.27.77-1.87a7,7,0,0,1,1.47-2.18,2.38,2.38,0,0,1,3.74.47c.7,1.23,0,2.65-1.52,3.56a6.18,6.18,0,0,1-2.19.58,19.5,19.5,0,0,1-2,.12h-.5Zm9.49.69H18.65c1.78-1.2,2.55-3.09,1.56-4.8A3.45,3.45,0,0,0,14.85.93,7.44,7.44,0,0,0,13.1,3.49c-.21.43-.41.9-.58,1.35-.18-.46-.37-.92-.57-1.35A7.86,7.86,0,0,0,10.17.93a3.45,3.45,0,0,0-5.36.77c-1,1.7-.22,3.6,1.56,4.8H2.21A2.17,2.17,0,0,0,0,8.67v2.16A2.17,2.17,0,0,0,2.2,13h0V23.82A2.17,2.17,0,0,0,4.37,26H20.63a2.17,2.17,0,0,0,2.16-2.18h0V13h0A2.17,2.17,0,0,0,25,10.83V8.67A2.18,2.18,0,0,0,22.79,6.5Z"/></svg>