<svg id="Layer_1" data-name="Layer 1" xmlns="http://www.w3.org/2000/svg" viewBox="0 0 32 32"><defs><style>.cls-1{fill-opacity:0;stroke:#000;stroke-linecap:round;stroke-linejoin:round;stroke-width:1.5px;}</style></defs><title>icon-heart</title><path class="cls-1" d="M24,2.75c-.3,0-.6,0-.9,0a9.05,9.05,0,0,0-3.41,1.14A15.82,15.82,0,0,0,16,6.88,16.09,16.09,0,0,0,12.3,3.94,9.42,9.42,0,0,0,8.89,2.8c-.3,0-.6,0-.9,0C6.11,2.75.73,4.29.73,11.13.73,19,13,27.46,15.42,29.08a1,1,0,0,0,1.11,0C19,27.46,31.22,19,31.22,11.13c0-6.84-5.37-8.38-7.26-8.38"/></svg>