<svg id="Layer_1" data-name="Layer 1" xmlns="http://www.w3.org/2000/svg" viewBox="0 0 24 24"><defs><style>.cls-1{fill-rule:evenodd;}</style></defs><title>messages</title><path class="cls-1" d="M1.63,12.72V5.88a4,4,0,0,1,4-4H18.41a4,4,0,0,1,4,4v6.84a4,4,0,0,1-4,4H14.08v3.46l-1.35-1.24,0,0c-1.17-1.08-2-1.82-2.18-2l-.17-.17H5.6a4,4,0,0,1-4-4Zm8.26,5.13c.35.34,1.06,1,2,1.91l0,0,1.58,1.45.52.48.2.18,1,.86V17.87h3.2a5.11,5.11,0,0,0,5.09-5.14V5.88A5.13,5.13,0,0,0,18.4.75H5.6A5.11,5.11,0,0,0,.5,5.88v6.84a5.11,5.11,0,0,0,5.1,5.13Z"/></svg>