<svg id="Layer_1" data-name="Layer 1" xmlns="http://www.w3.org/2000/svg" viewBox="0 0 26 24"><defs><style>.cls-1{fill:#60b6b5;}.cls-2{fill:#484848;}</style></defs><title>place</title><path class="cls-1" d="M12,10a2.48,2.48,0,0,1-1.3,2.18,4.5,4.5,0,0,1,2.47,1.74,3.45,3.45,0,0,1,1.19-.72,2.5,2.5,0,1,1,2.29,0A3.49,3.49,0,0,1,19,16.5V18h2.5a.49.49,0,0,0,.5-.48h0v-11a1,1,0,0,0-.43-.75l-5.14-3a.93.93,0,0,0-.86,0l-5.14,3A.94.94,0,0,0,10,6.5v1A2.5,2.5,0,0,1,12,10Z"/><path class="cls-2" d="M25.43,6.26a.5.5,0,0,1-.69.17h0L23,5.38V1c-1.33,0-2,0-2,0V3.17a.55.55,0,0,1-.54.56.56.56,0,0,1-.31-.09l-4-2.45a.47.47,0,0,0-.33,0L8.27,5.81a.5.5,0,0,1-.67-.22A.5.5,0,0,1,7.75,5L15.31.34a1.41,1.41,0,0,1,1.38,0l3.32,2V1a1,1,0,0,1,1-1h2a1,1,0,0,1,1,1V4.82l1.26.75a.5.5,0,0,1,.17.69ZM23.5,8a.5.5,0,0,0-.5.5V19H21.5a.5.5,0,0,0,0,1h1.9a.62.62,0,0,0,.6-.6V8.5A.5.5,0,0,0,23.5,8ZM19,16.5V20H18V16.5a2.49,2.49,0,0,0-4.34-1.68A4.38,4.38,0,0,1,14,16.5V20H13V16.5a3.45,3.45,0,0,0-.5-1.77A3.52,3.52,0,0,0,10,13a2.81,2.81,0,0,0-.5,0A3.54,3.54,0,0,0,6,16.5V20H5V16.5a4.38,4.38,0,0,1,.34-1.68A2.49,2.49,0,0,0,1,16.5V20H0V16.5a3.51,3.51,0,0,1,2.35-3.29,2.5,2.5,0,1,1,2.29,0,3.45,3.45,0,0,1,1.19.72A4.5,4.5,0,0,1,8.3,12.19a2.5,2.5,0,1,1,3.39-1,2.53,2.53,0,0,1-1,1,4.5,4.5,0,0,1,2.47,1.74,3.45,3.45,0,0,1,1.19-.72,2.5,2.5,0,1,1,2.29,0A3.49,3.49,0,0,1,19,16.5ZM5,11a1.5,1.5,0,1,0-1.5,1.5A1.5,1.5,0,0,0,5,11Zm6-1a1.5,1.5,0,0,0-1-1.41,1.43,1.43,0,0,0-.5-.09,1.5,1.5,0,0,0,0,3,1.43,1.43,0,0,0,.5-.09A1.5,1.5,0,0,0,11,10Zm6,1a1.5,1.5,0,1,0-1.5,1.5A1.5,1.5,0,0,0,17,11Z"/></svg>