<svg id="Layer_1" data-name="Layer 1" xmlns="http://www.w3.org/2000/svg" viewBox="0 0 24 24"><defs><style>.cls-1{fill-rule:evenodd;}</style></defs><title>profile</title><path class="cls-1" d="M14.76,11.38a6,6,0,1,0-5.49,0C4.46,12.59,0,16.68,0,20.07,0,21.63,6.8,24,12,24s12-2.34,12-3.93c0-3.39-4.45-7.47-9.24-8.7ZM7,6a5,5,0,1,1,5.26,5h-.5A5,5,0,0,1,7,6ZM22.9,20.11a3.47,3.47,0,0,1-.64.44,14.78,14.78,0,0,1-2.52,1.1A24.55,24.55,0,0,1,12,23a24.12,24.12,0,0,1-7.74-1.37,15.15,15.15,0,0,1-2.52-1.1A8.15,8.15,0,0,0,1,20.07c0-3.35,5.55-7.85,10.64-8L12,12l.36,0C17.47,12.24,23,16.73,23,20.07,23,20,23,20,22.9,20.11Z"/></svg>